<svg xmlns="http://www.w3.org/2000/svg" width="1400" height="900" viewBox="0 0 1400 900" role="img" aria-labelledby="title desc">
  <title id="title">B.D WORLD SCHOOL building</title>
  <desc id="desc">Premium front elevation illustration of B.D WORLD SCHOOL with white facade and blue signage.</desc>
  <defs>
    <linearGradient id="sky" x1="0" x2="0" y1="0" y2="1">
      <stop offset="0" stop-color="#d9edf7"/>
      <stop offset="1" stop-color="#f8fafc"/>
    </linearGradient>
    <linearGradient id="glass" x1="0" x2="1">
      <stop offset="0" stop-color="#0e7490" stop-opacity=".22"/>
      <stop offset="1" stop-color="#093c5d" stop-opacity=".42"/>
    </linearGradient>
    <filter id="shadow" x="-20%" y="-20%" width="140%" height="140%">
      <feDropShadow dx="0" dy="28" stdDeviation="24" flood-color="#093c5d" flood-opacity=".18"/>
    </filter>
  </defs>
  <rect width="1400" height="900" fill="url(#sky)"/>
  <path d="M0 650c175-42 308-45 473-20 184 28 370 67 558 33 144-26 244-77 369-64v301H0Z" fill="#e9f5f4"/>
  <path d="M0 724h1400v176H0Z" fill="#d9e2df"/>
  <g opacity=".65">
    <path d="M95 768h1210" stroke="#b9c8c3" stroke-width="8"/>
    <path d="M150 824h1100" stroke="#c8d4d0" stroke-width="6"/>
  </g>
  <g filter="url(#shadow)">
    <path d="M255 252h890v394H255Z" fill="#fbfbf7"/>
    <path d="M235 236h930v48H235Z" fill="#fff"/>
    <path d="M295 184h810l60 52H235Z" fill="#fff"/>
    <path d="M350 199h700l38 31H312Z" fill="#f6f7f5"/>
    <text x="700" y="226" text-anchor="middle" font-family="Arial, Helvetica, sans-serif" font-size="38" font-weight="800" fill="#093c5d" letter-spacing="1">B.D WORLD SCHOOL</text>
    <rect x="322" y="324" width="118" height="118" rx="6" fill="url(#glass)"/>
    <rect x="514" y="324" width="118" height="118" rx="6" fill="url(#glass)"/>
    <rect x="768" y="324" width="118" height="118" rx="6" fill="url(#glass)"/>
    <rect x="960" y="324" width="118" height="118" rx="6" fill="url(#glass)"/>
    <rect x="612" y="501" width="176" height="145" rx="8" fill="#f6f7f5" stroke="#d6dedb" stroke-width="4"/>
    <rect x="643" y="528" width="114" height="118" rx="4" fill="url(#glass)"/>
    <path d="M580 647h240l34 32H546Z" fill="#e7ece9"/>
    <path d="M520 679h360l36 34H484Z" fill="#d9e3df"/>
    <path d="M470 713h460l38 36H432Z" fill="#cbd8d4"/>
    <g fill="#fff">
      <rect x="286" y="270" width="54" height="376"/>
      <rect x="444" y="270" width="54" height="376"/>
      <rect x="902" y="270" width="54" height="376"/>
      <rect x="1060" y="270" width="54" height="376"/>
    </g>
    <g fill="#eef2f0">
      <ellipse cx="313" cy="270" rx="32" ry="10"/>
      <ellipse cx="471" cy="270" rx="32" ry="10"/>
      <ellipse cx="929" cy="270" rx="32" ry="10"/>
      <ellipse cx="1087" cy="270" rx="32" ry="10"/>
    </g>
  </g>
  <g>
    <rect x="156" y="650" width="82" height="18" rx="9" fill="#14b8a6"/>
    <rect x="1184" y="646" width="94" height="20" rx="10" fill="#14b8a6"/>
    <circle cx="202" cy="617" r="35" fill="#b8d9c2"/>
    <circle cx="1235" cy="610" r="40" fill="#b8d9c2"/>
    <rect x="192" y="622" width="15" height="60" fill="#8a6f4d"/>
    <rect x="1228" y="618" width="16" height="68" fill="#8a6f4d"/>
  </g>
</svg>
