<svg xmlns="http://www.w3.org/2000/svg" width="512" height="512" viewBox="0 0 512 512" role="img" aria-labelledby="title desc">
  <title id="title">B.D WORLD SCHOOL logo</title>
  <desc id="desc">Premium navy and teal school monogram logo for B.D WORLD SCHOOL.</desc>
  <defs>
    <linearGradient id="bg" x1="96" x2="416" y1="74" y2="438" gradientUnits="userSpaceOnUse">
      <stop stop-color="#093C5D"/>
      <stop offset="1" stop-color="#0E7490"/>
    </linearGradient>
  </defs>
  <rect width="512" height="512" rx="112" fill="#F8FAFC"/>
  <rect x="44" y="44" width="424" height="424" rx="92" fill="url(#bg)"/>
  <path d="M142 182 256 118l114 64v36L256 154 142 218v-36Z" fill="#fff"/>
  <path d="M174 224h164v136H174V224Z" fill="#fff" opacity=".96"/>
  <path d="M214 360V252h55c28 0 48 16 48 42 0 15-7 28-20 35l29 31h-42l-23-26h-12v26h-35Zm35-57h20c9 0 15-5 15-13s-6-13-15-13h-20v26Z" fill="#093C5D"/>
  <path d="M192 395h128" stroke="#14B8A6" stroke-width="20" stroke-linecap="round"/>
  <text x="256" y="438" text-anchor="middle" font-family="Arial, Helvetica, sans-serif" font-size="32" font-weight="800" fill="#fff" letter-spacing="2">B.D WORLD</text>
</svg>
