<svg xmlns="http://www.w3.org/2000/svg" viewBox="0 0 96 96" role="img" aria-label="Triveni Triratan Public Jr. High School logo">
  <rect width="96" height="96" rx="18" fill="#093C5D"/>
  <path d="M48 12 76 24v19c0 18.6-11.7 32.3-28 40-16.3-7.7-28-21.4-28-40V24l28-12Z" fill="#ffffff"/>
  <path d="M48 18 70 27v16c0 14.9-8.8 25.7-22 32.4C34.8 68.7 26 57.9 26 43V27l22-9Z" fill="#093C5D"/>
  <path d="M34 39c5.6-.8 10.4.2 14 3.1 3.6-2.9 8.4-3.9 14-3.1v24c-5.5-.8-10.2.1-14 2.8-3.8-2.7-8.5-3.6-14-2.8V39Z" fill="#ffffff"/>
  <path d="M48 42.1v23.7M39 46h5.8M51.2 46H57M39 52h5.8M51.2 52H57M39 58h5.8M51.2 58H57" stroke="#093C5D" stroke-width="2" stroke-linecap="round"/>
  <path d="M48 26c2.7 2.8 4.2 5.7 4.2 8.5A4.2 4.2 0 0 1 48 38.7a4.2 4.2 0 0 1-4.2-4.2c0-2.8 1.5-5.7 4.2-8.5Z" fill="#F6C65B"/>
</svg>
